<svg width="75" height="35" viewBox="0 0 75 35" fill="none" xmlns="http://www.w3.org/2000/svg">
<g clip-path="url(#clip0_3016_375)">
<path d="M15.4586 10.7215C16.1802 10.4838 16.9499 10.3571 17.7485 10.3571C21.2444 10.3571 24.1629 12.8094 24.83 16.0695L29.7852 15.0715C28.6498 9.53335 23.6915 5.36389 17.7485 5.36389C16.3855 5.36389 15.0801 5.5825 13.855 5.98804L15.4586 10.7215Z" fill="#FFCB05"/>
<path d="M9.61173 26.5818L12.9633 22.8401C11.4687 21.5316 10.5258 19.6211 10.5258 17.492C10.5258 15.3661 11.4687 13.4556 12.9633 12.1503L9.61173 8.4054C7.07162 10.6295 5.46802 13.877 5.46802 17.492C5.46802 21.1102 7.07162 24.3577 9.61173 26.5818" fill="#00A4E0"/>
<path d="M24.83 18.9242C24.1597 22.1812 21.2444 24.6303 17.7517 24.6303C16.9499 24.6303 16.177 24.5035 15.4586 24.2627L13.855 29.0025C15.0801 29.4049 16.3887 29.6235 17.7517 29.6235C23.6883 29.6235 28.6434 25.4604 29.7852 19.9285L24.83 18.9242Z" fill="#EF4123"/>
<path d="M34.118 22.9954C33.9544 22.7356 33.7363 22.3206 33.6016 22.0132C32.8159 20.2137 32.7806 18.3507 33.4413 16.5638C34.1693 14.6026 35.5612 13.104 37.3605 12.3373C39.6216 11.3773 42.12 11.5642 44.2881 12.8347C45.6639 13.6141 46.6389 14.8181 47.3798 16.5226C47.4728 16.7412 47.5562 16.9725 47.6396 17.1721L34.118 22.9954ZM38.6338 15.2299C37.0269 15.9111 36.1995 17.4002 36.3727 19.1428L43.1719 16.2501C42.0013 14.8941 40.4811 14.4442 38.6338 15.2299V15.2299ZM44.0186 21.5222C44.0154 21.5222 44.0154 21.5253 44.0154 21.5253L43.8743 21.4303C43.467 22.0798 42.8352 22.6089 42.0366 22.951C40.5164 23.6037 39.1084 23.4358 38.0949 22.5582L38.0019 22.6976C38.0019 22.6976 38.0019 22.6944 37.9987 22.6944L36.2732 25.2449C36.703 25.5395 37.1616 25.7867 37.6427 25.9863C39.5478 26.7688 41.4978 26.7308 43.4189 25.9071C44.8076 25.3114 45.8981 24.4053 46.6421 23.2552L44.0186 21.5222ZM52.3638 8.58606V22.761L54.596 23.6544L53.3292 26.5756L50.866 25.5617C50.3144 25.3241 49.9359 24.9629 49.6537 24.5542C49.3811 24.1392 49.179 23.5657 49.179 22.799V8.58606H52.3638ZM58.1432 19.1523C58.1432 17.9452 58.6852 16.8616 59.5383 16.1266L57.2484 13.6046C55.6961 14.9606 54.7179 16.9408 54.7179 19.1459C54.7147 21.3542 55.6929 23.3376 57.242 24.6936L59.5287 22.1716C58.6788 21.4334 58.1432 20.3562 58.1432 19.1523V19.1523ZM62.2099 23.1728C61.7609 23.1728 61.3247 23.0968 60.9206 22.9637L59.827 26.1732C60.5742 26.4203 61.3728 26.5566 62.2067 26.5566C65.8309 26.5597 68.8552 24.0188 69.5576 20.6445L66.1965 19.9665C65.8148 21.801 64.1759 23.176 62.2099 23.1728V23.1728ZM62.2195 11.748C61.3889 11.748 60.5903 11.8811 59.843 12.125L60.927 15.3377C61.3344 15.2046 61.7673 15.1317 62.2163 15.1317C64.1856 15.1349 65.8276 16.5163 66.1997 18.3539L69.5608 17.6822C68.8713 14.3016 65.8469 11.7512 62.2195 11.748V11.748Z" fill="white"/>
</g>
<defs>
<clipPath id="clip0_3016_375">
<rect width="75" height="35" rx="17.5" fill="white"/>
</clipPath>
</defs>
</svg>
