<svg width="33" height="41" viewBox="0 0 33 41" fill="none" xmlns="http://www.w3.org/2000/svg">
<path d="M5.88727 15.583L5.88721 15.5829L5.88727 15.583ZM25.1475 3.32174L27.3043 0.505955L32.4968 1.27406C32.4934 1.28746 32.4865 1.30598 32.4724 1.32956L29.9904 4.42443C29.4657 4.98253 29.8296 5.85442 30.5112 5.98905L32.1153 6.35922L32.1152 6.35924L32.1192 6.36012C32.3105 6.40262 32.3876 6.62187 32.2688 6.77306L32.2678 6.77431L24.9769 16.1129L24.9758 16.1143L24.0147 17.3546C23.9352 17.4568 23.8179 17.4739 23.7332 17.4316L23.7264 17.4282L23.7195 17.425L21.6466 16.466C21.2291 16.2612 20.6598 16.3049 20.2777 16.6807L18.8869 17.9786L18.8806 17.9845L18.8745 17.9906C18.8047 18.0604 18.7047 18.0709 18.6332 18.0312L18.6269 18.0277L18.6205 18.0244L17.798 17.5979C17.3283 17.3178 16.7603 17.4563 16.4207 17.7473L16.4207 17.7472L16.4165 17.7509L13.6589 20.1677C13.4139 20.373 13.0605 20.4065 12.787 20.2442L11.1466 19.2228L11.1441 19.2213L7.76325 17.1431L7.76236 17.1426L6.70839 16.4917L6.70842 16.4916L6.70294 16.4883C6.42746 16.323 6.29872 16.0171 6.37394 15.6975L6.37498 15.6929L6.8687 13.502C6.9171 13.338 7.10542 13.2607 7.24586 13.3309C7.24587 13.3309 7.24587 13.3309 7.24588 13.3309L7.92842 13.6722L7.92855 13.6723C8.34578 13.8808 8.8513 13.8297 9.21437 13.5726L10.6075 12.6129L10.6075 12.613L10.6144 12.608C10.6888 12.5549 10.7708 12.5493 10.8449 12.5863L10.8541 12.5909L10.8635 12.5951L13.6247 13.8362L13.6247 13.8363L13.6328 13.8398C14.0368 14.0128 14.5454 13.9168 14.8228 13.5205L22.0734 4.22495L22.0734 4.22501L22.0792 4.21738C22.1362 4.14132 22.2398 4.10263 22.3463 4.1263L22.3471 4.12649L24.1776 4.52982L24.1959 4.53386L24.2145 4.53651C24.7417 4.61182 25.282 4.14336 25.1072 3.53183C25.0826 3.4455 25.103 3.37581 25.1347 3.33777L25.1413 3.32989L25.1475 3.32174Z" fill="#8257E6" stroke="#BEA7F4"/>
<path d="M9.54829 21.6692L9.12293 20.5462L14.9537 24.3033L13.5278 24.4554L13.4931 24.4591L13.4593 24.4675C13.2889 24.5102 13.0681 24.5958 12.8775 24.7387L12.8619 24.7503L12.8473 24.7632L10.8149 26.5494L8.9227 25.0777C8.9227 25.0776 8.9227 25.0775 8.9227 25.0774L9.59755 22.4394L9.60084 22.4266L9.60344 22.4136C9.64715 22.195 9.65435 21.9376 9.54829 21.6692Z" fill="#8257E6" stroke="#BEA7F4"/>
<path d="M9.44196 30.7737L2.85539 37.3828L3.50437 36.3171C3.65518 36.113 3.60267 35.8862 3.57673 35.8084C3.54164 35.7032 3.48096 35.6147 3.41693 35.5508L3.27053 35.4046H3.06363H3.06344H3.06326H3.06308H3.0629H3.06272H3.06254H3.06235H3.06217H3.06199H3.06181H3.06163H3.06144H3.06126H3.06108H3.0609H3.06072H3.06054H3.06035H3.06017H3.05999H3.05981H3.05963H3.05944H3.05926H3.05908H3.0589H3.05872H3.05854H3.05835H3.05817H3.05799H3.05781H3.05763H3.05745H3.05726H3.05708H3.0569H3.05672H3.05654H3.05635H3.05617H3.05599H3.05581H3.05563H3.05545H3.05526H3.05508H3.0549H3.05472H3.05454H3.05436H3.05417H3.05399H3.05381H3.05363H3.05345H3.05326H3.05308H3.0529H3.05272H3.05254H3.05236H3.05217H3.05199H3.05181H3.05163H3.05145H3.05127H3.05108H3.0509H3.05072H3.05054H3.05036H3.05017H3.04999H3.04981H3.04963H3.04945H3.04927H3.04908H3.0489H3.04872H3.04854H3.04836H3.04817H3.04799H3.04781H3.04763H3.04745H3.04727H3.04708H3.0469H3.04672H3.04654H3.04636H3.04618H3.04599H3.04581H3.04563H3.04545H3.04527H3.04508H3.0449H3.04472H3.04454H3.04436H3.04418H3.04399H3.04381H3.04363H3.04345H3.04327H3.04309H3.0429H3.04272H3.04254H3.04236H3.04218H3.042H3.04181H3.04163H3.04145H3.04127H3.04109H3.0409H3.04072H3.04054H3.04036H3.04018H3.04H3.03981H3.03963H3.03945H3.03927H3.03909H3.0389H3.03872H3.03854H3.03836H3.03818H3.038H3.03781H3.03763H3.03745H3.03727H3.03709H3.03691H3.03672H3.03654H3.03636H3.03618H3.036H3.03582H3.03563H3.03545H3.03527H3.03509H3.03491H3.03472H3.03454H3.03436H3.03418H3.034H3.03382H3.03363H3.03345H3.03327H3.03309H3.03291H3.03273H3.03254H3.03236H3.03218H3.032H3.03182H3.03163H3.03145H3.03127H3.03109H3.03091H3.03073H3.03054H3.03036H3.03018H3.03H3.02982H3.02964H3.02945H3.02927H3.02909H3.02891H3.02873H3.02854H3.02836H3.02818H3.028H3.02782H3.02764H3.02745H3.02727H3.02709H3.02691H3.02673H3.02655H3.02636H3.02618H3.026H3.02582H3.02564H3.02545H3.02527H3.02509H3.02491H3.02473H3.02455H3.02436H3.02418H3.024H3.02382H3.02364H3.02346H3.02327H3.02309H3.02291H3.02273H3.02255H3.02236H3.02218H3.022H3.02182H3.02164H3.02146H3.02127H3.02109H3.02091H3.02073H3.02055H3.02037H3.02018H3.02H3.01982H3.01964H3.01946H3.01927H3.01909H3.01891H3.01873H3.01855H3.01837H3.01818H3.018H3.01782H3.01764H3.01746H3.01728H3.01709H3.01691H3.01673H3.01655H3.01637H3.01618H3.016H3.01582H3.01564H3.01546H3.01528H3.01509H3.01491H3.01473H3.01455H3.01437H3.01419H3.014H3.01382H3.01364H3.01346H3.01328H3.01309H3.01291H3.01273H3.01255H3.01237H3.01219H3.012H3.01182H3.01164H3.01146H3.01128H3.0111H3.01091H3.01073H3.01055H3.01037H3.01019H3.01H3.00982H3.00964H3.00946H3.00928H3.0091H3.00891H3.00873H3.00855H3.00837H3.00819H3.008H3.00782H3.00764H3.00746H3.00728H3.0071H3.00691H3.00673H3.00655H3.00637H3.00619H3.00601H3.00582H3.00564H3.00546H3.00528H3.0051H3.00491H3.00473H3.00455H3.00437H3.00419H3.00401H3.00382H3.00364H3.00346H3.00328H3.0031H3.00292H3.00273H3.00255H3.00237H3.00219H3.00201H3.00182H3.00164H3.00146H3.00128H3.0011H3.00092H3.00073H3.00055H3.00037H3.00019H3.00001H2.99982H2.99964H2.99946H2.99928H2.9991H2.99892H2.99873H2.99855H2.99837H2.99819H2.99801H2.99783H2.99764H2.99746H2.99728H2.9971H2.99692H2.99673H2.99655H2.99637H2.99619H2.99601H2.99583H2.99564H2.99546H2.99528H2.9951H2.99492H2.99473H2.99455H2.99437H2.99419H2.99401H2.99383H2.99364H2.99346H2.99328H2.9931H2.99292H2.99273H2.99255H2.99237H2.99219H2.99201H2.99183H2.99164H2.99146H2.99128H2.9911H2.99092H2.99074H2.99055H2.99037H2.99019H2.99001H2.98983H2.98964H2.98946H2.98928H2.9891H2.98892H2.98874H2.98855H2.98837H2.98819H2.98801H2.98783H2.98764H2.98746H2.98728H2.9871H2.98692H2.98674H2.98655H2.98637H2.98619H2.98601H2.98583H2.98564H2.98546H2.98528H2.9851H2.98492H2.98474H2.98455H2.98437H2.98419H2.98401H2.98383H2.98364H2.98346H2.98328H2.9831H2.98292H2.98274H2.98255H2.98237H2.98219H2.98201H2.98183H2.98164H2.98146H2.98128H2.9811H2.98092H2.98074H2.98055H2.98037H2.98019H2.98001H2.97983H2.97964H2.97946H2.97928H2.9791H2.97892H2.97874H2.97855H2.97837H2.97819H2.97801H2.97783H2.97764H2.97746H2.97728H2.9771H2.97692H2.97674H2.97655H2.97637H2.97619H2.97601H2.97583H2.97564H2.97546H2.97528H2.9751H2.97492H2.97474H2.97455H2.97437H2.97419H2.97401H2.97383H2.97364H2.97346H2.97328H2.9731H2.97292H2.97274H2.97255H2.97237H2.97219H2.97201H2.97183H2.97164H2.97146H2.97128H2.9711H2.97092H2.97073H2.97055H2.87772L2.85335 35.414L5.98949 27.6707C5.99228 27.6667 5.99493 27.6629 5.99753 27.6593L7.58346 26.8812L9.63642 28.4511L9.45628 30.733C9.45407 30.741 9.45209 30.7477 9.45024 30.7535C9.44705 30.7636 9.44485 30.7692 9.44369 30.772C9.44333 30.7724 9.4429 30.7728 9.44239 30.7733L9.44196 30.7737Z" fill="#8257E6" stroke="#BEA7F4"/>
</svg>
